# xmcd
#
# Track frame offsets: 
#        150
#        15675
#        43390
#        63610
#        84537
#        105917
#        128257
#        157407
#        179297
#        207732
#        234532
#        253715
#        279675
#        298652
#
# Disc length: 4283 seconds
#
# Revision: 1
# Processed by: cddbd v1.5.2PL0 Copyright (c) Steve Scherf et al.
# Submitted via: ExactAudioCopy v1.0b3
#
DISCID=d210b90e
DTITLE=Various Artist - Mua Xuan Hoa Dao
DYEAR=1995
DGENRE=Blues
TTITLE0=Thai Hien - Khuc hat thanh Xuan
TTITLE1=Duy Quang - Phut giao mua
TTITLE2=Huong Lan - Mua Xuan hoa dao
TTITLE3=Mai Huong - La thu mua Xuan
TTITLE4=Elvis Phuong - Phien gac dem Xuan
TTITLE5=Ngoc Lan - Toi di tim lai mot mua Xuan
TTITLE6=Luu Hong - Mong dem Xuan
TTITLE7=Khanh Ly - Xuan thi
TTITLE8=Ty Cong Phung - Mua Xuan tren dinh binh yen
TTITLE9=Ngoc Lan - Hoa Xuan
TTITLE10=Le Thu - Dem Xuan
TTITLE11=Duy Quang - Don vang mua Xuan
TTITLE12=Thai Hien - Tren doi Xuan
TTITLE13=Sy Phu - Xuan tha huong
EXTD=
EXTT0=
EXTT1=
EXTT2=
EXTT3=
EXTT4=
EXTT5=
EXTT6=
EXTT7=
EXTT8=
EXTT9=
EXTT10=
EXTT11=
EXTT12=
EXTT13=
PLAYORDER=
